<svg id="Ebene_1" data-name="Ebene 1" xmlns="http://www.w3.org/2000/svg" viewBox="0 0 90.52 141"><defs><style>.cls-1{fill:#fff;}.cls-1,.cls-2{stroke:#1d1d1b;stroke-miterlimit:10;}.cls-2{fill:#e30613;}</style></defs><path class="cls-1" d="M165.44,307.24" transform="translate(-134.35 -194.05)"/><path class="cls-1" d="M166,309.5" transform="translate(-134.35 -194.05)"/><path class="cls-2" d="M224.29,308.06l-.09-.65c0-.12,0-.24,0-.36a17.47,17.47,0,0,0-.8-5.19q-6.61-46.68-13.22-93.34c-.58-7.77-13.78-14-30-14-15.89,0-28.88,6-29.92,13.53h-.1q-7.24,47.41-14.47,94.83a17.55,17.55,0,0,0-.46,3l-.33,2.16h.33c.86,14.72,20.43,26.49,44.45,26.49s43.6-11.77,44.46-26.49Z" transform="translate(-134.35 -194.05)"/><ellipse class="cls-2" cx="45.59" cy="15" rx="30" ry="14.5"/></svg>